<?xml version="1.0" encoding="UTF-8"?>
<svg xmlns="http://www.w3.org/2000/svg" width="220" height="102" viewBox="0 0 220 102" fill="none">
  <path fill-rule="evenodd" clip-rule="evenodd" d="M204.592 75.6144L207.809 85.5154H218.219L209.797 91.6344L213.014 101.535L204.592 95.4165L196.17 101.535L199.387 91.6344L190.965 85.5154H201.375L204.592 75.6144Z" fill="#5A5A5A"></path>
  <path fill-rule="evenodd" clip-rule="evenodd" d="M171.335 75.6144L174.553 85.5154H184.963L176.54 91.6344L179.758 101.535L171.335 95.4165L162.913 101.535L166.13 91.6344L157.708 85.5154H168.118L171.335 75.6144Z" fill="#5A5A5A"></path>
  <path fill-rule="evenodd" clip-rule="evenodd" d="M137.82 75.6144L141.037 85.5154H151.447L143.025 91.6344L146.242 101.535L137.82 95.4165L129.397 101.535L132.615 91.6344L124.192 85.5154H134.602L137.82 75.6144Z" fill="#5A5A5A"></path>
  <path fill-rule="evenodd" clip-rule="evenodd" d="M104.303 75.6144L107.521 85.5155H117.931L109.508 91.6345L112.726 101.536L104.303 95.4165L95.8809 101.536L99.0982 91.6345L90.6759 85.5155H101.086L104.303 75.6144Z" fill="#5A5A5A"></path>
  <path fill-rule="evenodd" clip-rule="evenodd" d="M71.0472 75.6144L74.2646 85.5154H84.6746L76.2523 91.6344L79.4696 101.535L71.0472 95.4165L62.6249 101.535L65.8422 91.6344L57.4199 85.5154H67.8299L71.0472 75.6144Z" fill="#5A5A5A"></path>
  <path d="M10.9672 87.8679H9.14212L9.55072 83.455H17.7499V80.4859H6.55433L5.5737 90.8643H10.1772C14.127 90.8643 15.2983 92.0083 15.2983 93.8334C15.2983 95.6312 13.8001 96.7481 11.2668 96.7481C9.11488 96.7481 7.04465 96.0126 5.65542 94.8685L4.15723 97.6198C5.90058 99.009 8.62456 99.8262 11.3213 99.8262C16.4424 99.8262 18.8667 97.0477 18.8667 93.6972C18.8667 90.3195 16.6058 87.8679 10.9672 87.8679Z" fill="#5A5A5A"></path>
  <path d="M23.0188 99.7441C24.2446 99.7441 25.2525 98.7907 25.2525 97.4832C25.2525 96.1212 24.2446 95.2223 23.0188 95.2223C21.793 95.2223 20.7852 96.1212 20.7852 97.4832C20.7852 98.7907 21.793 99.7441 23.0188 99.7441Z" fill="#5A5A5A"></path>
  <path d="M35.2353 99.8225C39.7843 99.8225 43.2166 96.2814 43.2166 90.0162C43.2166 83.751 39.7843 80.2098 35.2353 80.2098C30.7135 80.2098 27.2812 83.751 27.2812 90.0162C27.2812 96.2814 30.7135 99.8225 35.2353 99.8225ZM35.2353 96.7444C32.6475 96.7444 30.8497 94.6197 30.8497 90.0162C30.8497 85.4127 32.6475 83.2879 35.2353 83.2879C37.8503 83.2879 39.6482 85.4127 39.6482 90.0162C39.6482 94.6197 37.8503 96.7444 35.2353 96.7444Z" fill="#5A5A5A"></path>
  <path d="M54.0171 25.4408H28.1579V33.0483H46.5622C45.6639 43.7163 36.7886 48.2658 28.4107 48.2658C17.6923 48.2658 8.33903 39.8323 8.33903 28.012C8.33903 16.4971 17.255 7.62927 28.4342 7.62927C37.0593 7.62927 42.1415 13.1275 42.1415 13.1275L47.4683 7.61128C47.4683 7.61128 40.6314 2.76007e-09 28.1619 2.76007e-09C12.2838 -0.000222075 0 13.4011 0 27.8761C0 42.06 11.5549 55.8906 28.5668 55.8906C43.5286 55.8906 54.4808 45.641 54.4808 30.4844C54.4808 27.2869 54.0167 25.4388 54.0167 25.4388L54.0171 25.4408Z" fill="#5A5A5A"></path>
  <path d="M75.997 19.9327C65.4774 19.9327 57.9385 28.157 57.9385 37.7487C57.9385 47.4824 65.2508 55.8596 76.1207 55.8596C85.9607 55.8596 94.0222 48.3385 94.0222 37.9579C94.0222 26.0603 84.6449 19.9327 75.997 19.9327ZM76.1016 26.9888C81.2749 26.9888 86.177 31.1712 86.177 37.9104C86.177 44.5068 81.2958 48.8084 76.0778 48.8084C70.3446 48.8084 65.8218 44.2167 65.8218 37.8582C65.8218 31.6358 70.2887 26.9888 76.1016 26.9888Z" fill="#5A5A5A"></path>
  <path d="M114.97 19.9327C104.45 19.9327 96.911 28.1569 96.911 37.7487C96.911 47.4824 104.223 55.8596 115.093 55.8596C124.933 55.8596 132.995 48.3385 132.995 37.9579C132.995 26.0603 123.617 19.9327 114.97 19.9327ZM115.074 26.9888C120.247 26.9888 125.15 31.1712 125.15 37.9104C125.15 44.5068 120.268 48.8084 115.05 48.8084C109.317 48.8084 104.794 44.2167 104.794 37.8582C104.794 31.6358 109.261 26.9888 115.074 26.9888Z" fill="#5A5A5A"></path>
  <path d="M153.389 19.949C143.733 19.949 136.144 28.4059 136.144 37.8982C136.144 48.7105 144.943 55.8807 153.222 55.8807C158.342 55.8807 161.064 53.8483 163.074 51.5158V55.0579C163.074 61.2555 159.312 64.9668 153.632 64.9668C148.145 64.9668 145.392 60.8868 144.436 58.5717L137.532 61.4578C139.981 66.6364 144.912 72.0371 153.689 72.0371C163.289 72.0371 170.606 65.9902 170.606 53.3082V20.585H163.075V24.0721C160.759 21.5766 157.592 19.9494 153.389 19.9494V19.949ZM154.088 26.9908C158.822 26.9908 163.683 31.0331 163.683 37.9362C163.683 44.9527 158.832 48.8198 153.983 48.8198C148.836 48.8198 144.046 44.64 144.046 38.0028C144.046 31.1064 149.02 26.9908 154.088 26.9908H154.088Z" fill="#5A5A5A"></path>
  <path d="M203.563 19.9083C194.455 19.9083 186.808 27.1552 186.808 37.848C186.808 49.1627 195.332 55.8732 204.438 55.8732C212.039 55.8732 216.703 51.7152 219.487 47.9899L213.278 43.8581C211.666 46.3589 208.972 48.8029 204.476 48.8029C199.426 48.8029 197.104 46.0376 195.666 43.3589L219.752 33.3643L218.502 30.4353C216.175 24.6997 210.747 19.9094 203.564 19.9094L203.563 19.9083ZM203.877 26.8169C207.159 26.8169 209.521 28.562 210.524 30.6542L194.439 37.3774C193.746 32.1724 198.677 26.8169 203.877 26.8169Z" fill="#5A5A5A"></path>
  <path d="M183.012 1.85925H175.635V54.8073H183.012V1.85925Z" fill="#5A5A5A"></path>
</svg>
