<?xml version="1.0" encoding="utf-8"?>
<!-- Generator: Adobe Illustrator 25.0.1, SVG Export Plug-In . SVG Version: 6.00 Build 0)  -->
<svg version="1.1" id="Layer_1" xmlns="http://www.w3.org/2000/svg" xmlns:xlink="http://www.w3.org/1999/xlink" x="0px" y="0px"
	 viewBox="0 0 348.6 103.4" style="enable-background:new 0 0 348.6 103.4;" xml:space="preserve">
<style type="text/css">
	.st0{fill:#FF5A00;}
	.st1{fill:#4CC0E1;}
</style>
<g>
	<g>
		<path class="st0" d="M66.7,86.4l23.1-23.1c8.9-8.9,9.5-19.3,1.7-27.1c-7.9-7.9-18.3-7.3-27.2,1.5L41.1,60.9
			c-3.3,3.3-8.4,3.3-11.6,0.1c-3.2-3.2-3.1-8.4,0.1-11.6l22.9-22.9c15-15,35.5-15.5,49.8-1.1c14.3,14.3,13.8,34.7-1.2,49.7
			L78.2,97.9c-3.3,3.3-8.4,3.3-11.6,0.1C63.4,94.8,63.5,89.6,66.7,86.4z"/>
		<path class="st1" d="M48.5,16.9L25.4,40c-8.9,8.9-9.5,19.3-1.7,27.1c7.9,7.9,18.3,7.3,27.2-1.5L74,42.5c3.3-3.3,8.4-3.3,11.6-0.1
			c3.2,3.2,3.1,8.4-0.1,11.6L62.6,76.9c-15,15-35.5,15.5-49.8,1.1C-1.4,63.8-0.9,43.3,14.1,28.3L37,5.4c3.3-3.3,8.4-3.3,11.6-0.1
			C51.7,8.5,51.7,13.7,48.5,16.9z"/>
	</g>
	<g>
		<path d="M145.8,17.4V42h-7.5V3.7h5.8l20,25.2V3.7h7.5V42h-6.1L145.8,17.4z"/>
		<path d="M187.5,42.6c-2.9,0-5.1-0.9-6.6-2.8c-1.5-1.9-2.3-4.6-2.3-8.3V13.7h7.2v16.2c0,4.4,1.6,6.5,4.7,6.5c1.4,0,2.8-0.4,4.1-1.3
			c1.3-0.8,2.4-2.1,3.2-3.9V13.7h7.2v20c0,0.8,0.1,1.3,0.4,1.6s0.7,0.5,1.3,0.5V42c-0.7,0.1-1.3,0.2-1.8,0.3c-0.5,0-0.9,0.1-1.3,0.1
			c-1.3,0-2.4-0.3-3.2-0.9s-1.3-1.4-1.4-2.5l-0.2-2.3c-1.3,1.9-2.9,3.4-4.9,4.4C192.1,42.1,189.9,42.6,187.5,42.6z"/>
		<path d="M256.3,42H249V26.1c0-2.3-0.4-3.9-1.2-5c-0.8-1-1.8-1.6-3.2-1.6c-1.4,0-2.8,0.5-4.1,1.6c-1.3,1.1-2.2,2.5-2.7,4.3V42h-7.2
			V26.1c0-2.3-0.4-3.9-1.2-5c-0.8-1-1.8-1.6-3.2-1.6c-1.4,0-2.7,0.5-4,1.6c-1.3,1.1-2.2,2.5-2.7,4.3V42h-7.2V13.7h6.5v5.2
			c1-1.8,2.5-3.3,4.3-4.2c1.8-1,3.9-1.5,6.2-1.5c2.4,0,4.2,0.6,5.5,1.7c1.3,1.2,2.1,2.6,2.5,4.3c1.2-1.9,2.6-3.4,4.4-4.5
			c1.8-1,3.8-1.5,6.1-1.5c1.7,0,3.2,0.3,4.3,1c1.1,0.6,2,1.5,2.6,2.5c0.6,1,1,2.2,1.3,3.6c0.2,1.3,0.4,2.7,0.4,4.1V42z"/>
		<path d="M278.7,42.6c-2.2,0-4.1-0.5-5.8-1.5c-1.7-1-3-2.3-4-4V42h-6.3V2.6h7.2v16.1c1-1.7,2.3-3.1,4-4c1.6-1,3.6-1.4,5.8-1.4
			c1.8,0,3.5,0.4,5,1.2c1.5,0.8,2.8,1.9,3.9,3.2c1.1,1.3,1.9,2.9,2.5,4.7c0.6,1.8,0.9,3.7,0.9,5.7c0,2.1-0.3,4-1,5.7
			c-0.7,1.8-1.6,3.3-2.8,4.6c-1.2,1.3-2.6,2.4-4.2,3.1C282.3,42.2,280.6,42.6,278.7,42.6z M276.7,36.4c1.2,0,2.2-0.2,3.2-0.7
			c1-0.4,1.8-1.1,2.5-1.8c0.7-0.8,1.2-1.6,1.6-2.6c0.4-1,0.6-2.1,0.6-3.2c0-1.2-0.2-2.3-0.5-3.3c-0.4-1-0.9-2-1.5-2.8
			c-0.7-0.8-1.5-1.4-2.4-1.9c-0.9-0.5-1.9-0.7-3-0.7c-1.6,0-3.1,0.5-4.3,1.6c-1.3,1.1-2.3,2.4-2.9,3.9v6.8c0.3,0.7,0.6,1.4,1.1,1.9
			c0.5,0.6,1,1.1,1.6,1.5c0.6,0.4,1.3,0.7,2,1C275.3,36.3,276,36.4,276.7,36.4z"/>
		<path d="M310,42.6c-2.3,0-4.3-0.4-6.2-1.2c-1.8-0.8-3.4-1.8-4.7-3.2c-1.3-1.3-2.3-2.9-3-4.6c-0.7-1.8-1.1-3.6-1.1-5.6
			c0-2,0.3-3.9,1-5.7c0.7-1.8,1.7-3.4,3-4.7s2.9-2.4,4.7-3.2c1.9-0.8,3.9-1.2,6.2-1.2c2.3,0,4.4,0.4,6.2,1.2
			c1.8,0.8,3.4,1.9,4.6,3.2c1.3,1.3,2.3,2.9,2.9,4.6c0.7,1.8,1,3.6,1,5.5c0,0.5,0,0.9,0,1.4c0,0.4-0.1,0.8-0.1,1.1h-21.9
			c0.1,1.1,0.4,2.1,0.8,3c0.4,0.9,1,1.6,1.7,2.2c0.7,0.6,1.5,1.1,2.3,1.4c0.9,0.3,1.8,0.5,2.7,0.5c1.4,0,2.8-0.4,4.1-1.1
			c1.3-0.7,2.2-1.6,2.6-2.8l6.2,1.7c-1,2.2-2.7,3.9-5,5.3C315.9,41.9,313.2,42.6,310,42.6z M317.3,25.5c-0.2-2.1-1-3.8-2.4-5.1
			c-1.4-1.3-3.1-1.9-5.1-1.9c-1,0-1.9,0.2-2.7,0.5c-0.8,0.3-1.6,0.8-2.2,1.4c-0.6,0.6-1.2,1.4-1.6,2.2c-0.4,0.9-0.7,1.8-0.7,2.9
			H317.3z"/>
		<path d="M346.1,20c-2.2,0-4.2,0.5-5.9,1.3s-3,2-3.7,3.6V42h-7.2V13.7h6.6v6.1c0.5-1,1.1-1.8,1.8-2.6c0.7-0.8,1.4-1.4,2.2-2
			c0.8-0.6,1.6-1,2.4-1.3c0.8-0.3,1.6-0.5,2.4-0.5c0.4,0,0.7,0,0.9,0c0.2,0,0.4,0,0.6,0.1V20z"/>
		<path d="M161.2,61c-0.3-0.3-0.7-0.6-1.4-1s-1.5-0.9-2.4-1.3c-1-0.4-2-0.8-3.1-1.1c-1.1-0.3-2.3-0.4-3.4-0.4
			c-2.1,0-3.6,0.4-4.6,1.1c-1,0.8-1.5,1.8-1.5,3.2c0,0.8,0.2,1.5,0.6,2c0.4,0.5,0.9,1,1.6,1.4c0.7,0.4,1.6,0.8,2.7,1.1
			s2.4,0.7,3.8,1c1.9,0.5,3.6,1,5.1,1.6c1.5,0.6,2.8,1.3,3.9,2.2s1.9,1.9,2.5,3.1c0.6,1.2,0.9,2.7,0.9,4.5c0,2.1-0.4,3.8-1.2,5.3
			c-0.8,1.5-1.8,2.6-3.1,3.5c-1.3,0.9-2.8,1.6-4.5,2c-1.7,0.4-3.5,0.6-5.4,0.6c-2.9,0-5.7-0.4-8.5-1.3c-2.8-0.9-5.3-2.1-7.6-3.7
			l3.3-6.4c0.3,0.3,0.9,0.7,1.8,1.3c0.8,0.5,1.8,1,3,1.6c1.2,0.5,2.4,1,3.8,1.3c1.4,0.4,2.8,0.5,4.3,0.5c4.1,0,6.2-1.3,6.2-3.9
			c0-0.8-0.2-1.5-0.7-2.1c-0.5-0.6-1.1-1.1-2-1.5c-0.9-0.4-1.9-0.8-3.1-1.2c-1.2-0.4-2.6-0.8-4.1-1.2c-1.8-0.5-3.4-1.1-4.8-1.6
			c-1.4-0.6-2.5-1.3-3.4-2.1c-0.9-0.8-1.6-1.7-2-2.8c-0.5-1.1-0.7-2.3-0.7-3.8c0-1.9,0.4-3.7,1.1-5.2c0.7-1.5,1.7-2.8,3-3.8
			c1.3-1,2.8-1.8,4.5-2.3c1.7-0.5,3.5-0.8,5.5-0.8c2.7,0,5.2,0.4,7.5,1.3c2.3,0.8,4.3,1.8,5.9,3L161.2,61z"/>
		<path d="M181.5,89.9c-1.8,0-3.5-0.4-5-1.2c-1.5-0.8-2.8-1.8-3.9-3.2c-1.1-1.3-2-2.9-2.6-4.7c-0.6-1.8-0.9-3.7-0.9-5.8
			c0-2.1,0.3-4,1-5.7c0.7-1.8,1.6-3.3,2.8-4.6c1.2-1.3,2.6-2.4,4.2-3.1s3.4-1.1,5.2-1.1c2.2,0,4.1,0.5,5.7,1.5c1.7,1,3,2.3,4.1,3.9
			V61h6.3v31.1c0,0.8,0.1,1.3,0.4,1.6c0.3,0.3,0.8,0.5,1.5,0.5v6.2c-0.6,0.1-1.3,0.2-2,0.2c-0.7,0.1-1.4,0.1-1.9,0.1
			c-0.7,0-1.4-0.1-2-0.4c-0.6-0.3-1.2-0.6-1.6-1c-0.5-0.4-0.8-0.9-1.1-1.5c-0.3-0.6-0.4-1.3-0.4-2V84.4c-1,1.8-2.4,3.2-4.1,4.1
			C185.5,89.4,183.6,89.9,181.5,89.9z M184.2,83.7c1.5,0,2.9-0.4,4.1-1.3s2.1-2,3-3.4v-6.7c-0.2-0.8-0.6-1.5-1.1-2.2
			c-0.5-0.7-1.1-1.3-1.7-1.8c-0.6-0.5-1.4-0.9-2.1-1.2c-0.8-0.3-1.5-0.4-2.3-0.4c-1.1,0-2.1,0.2-3.1,0.7c-0.9,0.5-1.7,1.1-2.4,1.9
			c-0.7,0.8-1.2,1.7-1.6,2.8c-0.4,1-0.6,2.1-0.6,3.2c0,1.2,0.2,2.3,0.6,3.3c0.4,1,0.9,1.9,1.6,2.6c0.7,0.8,1.5,1.4,2.4,1.8
			C182,83.5,183,83.7,184.2,83.7z"/>
		<path d="M213.7,89.9c-2.9,0-5.1-0.9-6.6-2.8c-1.5-1.9-2.3-4.6-2.3-8.3V61h7.2v16.2c0,4.4,1.6,6.5,4.7,6.5c1.4,0,2.8-0.4,4.1-1.3
			c1.3-0.8,2.4-2.1,3.2-3.9V61h7.2v20c0,0.8,0.1,1.3,0.4,1.6s0.7,0.5,1.3,0.5v6.2c-0.7,0.1-1.3,0.2-1.8,0.3c-0.5,0-0.9,0.1-1.3,0.1
			c-1.3,0-2.4-0.3-3.2-0.9s-1.3-1.4-1.4-2.5l-0.2-2.3c-1.3,1.9-2.9,3.4-4.9,4.4C218.2,89.4,216.1,89.9,213.7,89.9z"/>
		<path d="M246.2,89.9c-1.4,0-2.6-0.2-3.8-0.7c-1.2-0.4-2.2-1.1-3.1-1.9c-0.9-0.8-1.5-1.8-2-2.8c-0.5-1.1-0.7-2.3-0.7-3.6
			c0-1.3,0.3-2.6,0.9-3.7c0.6-1.1,1.4-2.1,2.5-2.9c1.1-0.8,2.3-1.4,3.8-1.9c1.5-0.4,3.1-0.7,4.9-0.7c1.3,0,2.5,0.1,3.7,0.3
			s2.3,0.5,3.2,0.9v-1.6c0-1.9-0.5-3.3-1.6-4.3c-1.1-1-2.6-1.5-4.7-1.5c-1.5,0-3,0.3-4.4,0.8c-1.4,0.5-2.9,1.3-4.4,2.4l-2.2-4.6
			c3.6-2.4,7.6-3.6,11.8-3.6c4.1,0,7.2,1,9.5,3c2.3,2,3.4,4.9,3.4,8.7V81c0,0.8,0.1,1.3,0.4,1.6s0.7,0.5,1.3,0.5v6.2
			c-1.2,0.3-2.3,0.4-3.2,0.4c-1.4,0-2.4-0.3-3.2-0.9c-0.7-0.6-1.2-1.4-1.4-2.4l-0.2-1.6c-1.3,1.7-2.8,2.9-4.6,3.8
			C250.1,89.4,248.2,89.9,246.2,89.9z M248.2,84.6c1.2,0,2.4-0.2,3.5-0.6c1.1-0.4,2-1,2.6-1.7c0.8-0.6,1.2-1.3,1.2-2.1v-3.2
			c-0.9-0.3-1.8-0.6-2.8-0.8c-1-0.2-2-0.3-2.9-0.3c-1.9,0-3.4,0.4-4.6,1.3c-1.2,0.8-1.8,1.9-1.8,3.2c0,1.2,0.5,2.2,1.4,3.1
			C245.7,84.2,246.8,84.6,248.2,84.6z"/>
		<path d="M281.2,89.9c-1.9,0-3.7-0.4-5.4-1.1c-1.7-0.8-3.1-1.8-4.3-3.1c-1.2-1.3-2.1-2.9-2.8-4.7c-0.7-1.8-1-3.7-1-5.8
			c0-2.1,0.3-4,0.9-5.7c0.6-1.8,1.5-3.3,2.6-4.6c1.1-1.3,2.4-2.4,4-3.1c1.5-0.8,3.2-1.1,5.1-1.1c2.1,0,4,0.5,5.6,1.5
			c1.7,1,3,2.3,3.9,3.9V49.9h7.2V81c0,0.8,0.1,1.3,0.4,1.6c0.3,0.3,0.7,0.5,1.3,0.5v6.2c-1.3,0.3-2.3,0.4-3.1,0.4
			c-1.3,0-2.4-0.3-3.2-1c-0.8-0.6-1.3-1.5-1.4-2.5l-0.2-1.8c-1,1.8-2.5,3.2-4.2,4.1C285,89.4,283.1,89.9,281.2,89.9z M283.1,83.7
			c0.7,0,1.4-0.1,2.1-0.4c0.7-0.2,1.4-0.6,2-1c0.6-0.4,1.2-0.9,1.6-1.5c0.5-0.6,0.9-1.2,1.1-1.9v-6.8c-0.3-0.8-0.7-1.5-1.2-2.2
			c-0.5-0.7-1.1-1.2-1.8-1.7c-0.7-0.5-1.4-0.9-2.1-1.2c-0.7-0.3-1.5-0.4-2.2-0.4c-1.1,0-2.1,0.2-3,0.7c-0.9,0.5-1.7,1.1-2.4,1.9
			s-1.2,1.7-1.5,2.8c-0.4,1-0.5,2.1-0.5,3.2c0,1.2,0.2,2.3,0.6,3.3c0.4,1,0.9,1.9,1.6,2.6c0.7,0.8,1.5,1.4,2.5,1.8
			C280.9,83.5,281.9,83.7,283.1,83.7z"/>
	</g>
</g>
</svg>
